# File created by Blade
# Date/Time:  Tue Apr 07 20:13:45 2015
#---------------------------------------------------------
:version 1.10
:name HOM
:units
  mass 1.0
  length 1.000000
  angle deg
:documentation
     Acclaim Skeleton File
:root
   axis xyz
   order TX TY TZ RX RY RZ
   position 0.000000 0.000000 0.000000
   orientation 0 0 0
:bonedata
   begin
      id 1
      name Spine_dum
      direction 0.000000 1.000000 0.000000
      length 4.885285
      axis 0.0 0.0 0.0 xyz
   end
   begin
      id 2
      name LeftUpLeg_dum
      direction 1.000000 0.000000 0.000000
      length 2.672193
      axis 0.0 0.0 0.0 xyz
   end
   begin
      id 3
      name RightUpLeg_dum
      direction -1.000000 0.000000 0.000000
      length 2.672193
      axis 0.0 0.0 0.0 xyz
   end
   begin
      id 4
      name Spine
      direction 0.000000 1.000000 0.000000
      length 0.000000
      axis 0.0 0.0 0.0 xyz
      dof rx ry rz
   end
   begin
      id 5
      name Spine_dum1
      direction 0.000000 1.000000 0.000000
      length 16.494159
      axis 0.0 0.0 0.0 xyz
   end
   begin
      id 6
      name Spine_dum2
      direction 0.000000 1.000000 0.000000
      length 10.663448
      axis 0.0 0.0 0.0 xyz
   end
   begin
      id 7
      name Spine_dum3
      direction 0.000000 1.000000 0.000000
      length 10.663448
      axis 0.0 0.0 0.0 xyz
   end
   begin
      id 8
      name Head
      direction 0.000000 1.000000 0.000000
      length 4.527550
      axis 0.0 0.0 0.0 xyz
      dof rx ry rz
   end
   begin
      id 9
      name LeftShoulder
      direction 1.000000 0.000000 0.000000
      length 7.531907
      axis 0.0 0.0 -90.0 xyz
      dof rx ry rz
   end
   begin
      id 10
      name LeftArm
      direction 1.000000 0.000000 0.000000
      length 10.229199
      axis 0.0 0.0 -90.0 xyz
      dof rx ry rz
   end
   begin
      id 11
      name LeftForeArm
      direction 1.000000 0.000000 0.000000
      length 8.673495
      axis 0.0 0.0 -90.0 xyz
      dof ry rz rx
   end
   begin
      id 12
      name LeftHand
      direction 0.000000 0.000000 0.000000
      length 0.000000
      axis 0.0 0.0 -90.0 xyz
      dof rx ry rz
   end
   begin
      id 13
      name LeftHand_dum1
      direction 0.000000 0.000000 0.000000
      length 0.000000
      axis 0.0 0.0 -90.0 xyz
   end
   begin
      id 14
      name LeftHand_dum2
      direction 1.000000 0.000000 0.000000
      length 3.937000
      axis 0.0 0.0 -90.0 xyz
   end
   begin
      id 15
      name LeftHandThumb1
      direction 0.000000 0.000000 1.000000
      length 3.937000
      axis 0.0 0.0 -90.0 xyz
      dof rx rz ry
   end
   begin
      id 16
      name RightShoulder
      direction -1.000000 0.000000 0.000000
      length 7.531907
      axis 0.0 0.0 90.0 xyz
      dof rx ry rz
   end
   begin
      id 17
      name RightArm
      direction -1.000000 0.000000 0.000000
      length 10.229199
      axis 0.0 0.0 90.0 xyz
      dof rx ry rz
   end
   begin
      id 18
      name RightForeArm
      direction -1.000000 0.000000 0.000000
      length 8.673495
      axis 0.0 0.0 90.0 xyz
      dof ry rz rx
   end
   begin
      id 19
      name RightHand
      direction 0.000000 0.000000 0.000000
      length 0.000000
      axis 0.0 0.0 90.0 xyz
      dof rx ry rz
   end
   begin
      id 20
      name RightHand_dum1
      direction 0.000000 0.000000 0.000000
      length 0.000000
      axis 0.0 0.0 90.0 xyz
   end
   begin
      id 21
      name RightHand_dum2
      direction -1.000000 0.000000 0.000000
      length 3.937000
      axis 0.0 0.0 90.0 xyz
   end
   begin
      id 22
      name RightHandThumb1
      direction 0.000000 0.000000 1.000000
      length 3.937000
      axis 0.0 0.0 90.0 xyz
      dof rx rz ry
   end
   begin
      id 23
      name LeftUpLeg
      direction 0.000000 -1.000000 0.000000
      length 16.263388
      axis 0.0 0.0 0.0 xyz
      dof rx ry rz
   end
   begin
      id 24
      name LeftLeg
      direction 0.000000 -1.000000 0.000000
      length 14.328163
      axis 0.0 0.0 0.0 xyz
      dof rx ry rz
   end
   begin
      id 25
      name LeftFoot
      direction 0.000000 -0.258819 0.965926
      length 5.031290
      axis 15.0 0.0 0.0 xyz
      dof rx ry rz
   end
   begin
      id 26
      name LeftToeBase
      direction 0.000000 0.000000 1.000000
      length 2.952750
      axis 0.0 0.0 0.0 xyz
      dof rx ry rz
   end
   begin
      id 27
      name RightUpLeg
      direction 0.000000 -1.000000 0.000000
      length 16.263388
      axis 0.0 0.0 0.0 xyz
      dof rx ry rz
   end
   begin
      id 28
      name RightLeg
      direction 0.000000 -1.000000 0.000000
      length 14.328163
      axis 0.0 0.0 0.0 xyz
      dof rx ry rz
   end
   begin
      id 29
      name RightFoot
      direction 0.000000 -0.258819 0.965926
      length 5.031290
      axis 15.0 0.0 0.0 xyz
      dof rx ry rz
   end
   begin
      id 30
      name RightToeBase
      direction 0.000000 0.000000 1.000000
      length 2.952750
      axis 0.0 0.0 0.0 xyz
      dof rx ry rz
   end
:hierarchy
   begin
      root Spine_dum LeftUpLeg_dum RightUpLeg_dum
      Spine_dum Spine
      LeftUpLeg_dum LeftUpLeg
      RightUpLeg_dum RightUpLeg
      Spine Spine_dum1 Spine_dum2 Spine_dum3
      Spine_dum1 Head
      Spine_dum2 LeftShoulder
      Spine_dum3 RightShoulder
      LeftShoulder LeftArm
      LeftArm LeftForeArm
      LeftForeArm LeftHand
      LeftHand LeftHand_dum1 LeftHand_dum2
      LeftHand_dum1 LeftHandThumb1
      RightShoulder RightArm
      RightArm RightForeArm
      RightForeArm RightHand
      RightHand RightHand_dum1 RightHand_dum2
      RightHand_dum1 RightHandThumb1
      LeftUpLeg LeftLeg
      LeftLeg LeftFoot
      LeftFoot LeftToeBase
      RightUpLeg RightLeg
      RightLeg RightFoot
      RightFoot RightToeBase
   end

# File created by Blade
# Date/Time:  Tue Apr 07 20:13:55 2015
# Frame Rate: 120.000 fps
#------------------------------------------------------
:FULLY-SPECIFIED
:DEGREES
443
root 2.382507 32.915243 -8.769387 -16.516632 18.836675 -17.465452
Spine 20.742473 -4.679156 13.649772
Head -6.812460 12.818421 2.236939
LeftShoulder -2.605123 37.640786 20.266429
LeftArm 77.282868 27.366682 -44.397417
LeftForeArm -68.080786 -0.000000 71.118395
LeftHand 8.321649 -0.000000 0.687440
LeftHandThumb1 -26.253704 0.000000 33.147579
RightShoulder 6.123869 3.678426 -24.662347
RightArm 29.610494 -36.429851 64.812549
RightForeArm 55.487287 -0.000000 69.339776
RightHand -2.883831 0.000000 22.408164
RightHandThumb1 -24.326973 -0.000000 -32.862282
LeftUpLeg 0.886170 -1.324371 11.156216
LeftLeg 22.549725 -0.000000 -0.000000
LeftFoot -14.377354 6.868852 -8.584781
LeftToeBase -9.316163 -0.000000 0.000000
RightUpLeg -108.898604 8.971732 15.290253
RightLeg 93.743641 -0.000000 -0.000000
RightFoot 34.562514 -12.029555 8.014892
RightToeBase 28.870633 -0.000000 -0.000000
444
root 2.392876 32.904221 -8.728781 -16.931654 18.762442 -17.425131
Spine 20.987835 -4.667719 13.560640
Head -6.467418 12.752510 2.396689
LeftShoulder -2.750538 37.706632 20.192116
LeftArm 77.349425 27.351881 -44.220215
LeftForeArm -68.047378 -0.000000 71.767389
LeftHand 8.430095 -0.000000 1.097208
LeftHandThumb1 -26.253704 0.000000 33.147579
RightShoulder 5.892818 3.634561 -24.655119
RightArm 29.338225 -36.246410 65.073292
RightForeArm 55.172017 -0.000000 69.895252
RightHand -2.917624 -0.000000 22.511188
RightHandThumb1 -24.326973 -0.000000 -32.862282
LeftUpLeg 1.268654 -1.110086 11.180451
LeftLeg 22.815709 -0.000000 -0.000000
LeftFoot -14.528498 6.694029 -8.573751
LeftToeBase -9.347568 -0.000000 0.000000
RightUpLeg -109.072038 8.808480 15.316332
RightLeg 93.781749 -0.000000 -0.000000
RightFoot 34.402425 -12.106801 7.994033
RightToeBase 28.961778 -0.000000 -0.000000
445
root 2.404428 32.899218 -8.691591 -17.344843 18.706677 -17.423546
Spine 21.232868 -4.658158 13.530195
Head -6.151163 12.640920 2.528703
LeftShoulder -2.879434 37.714272 20.100249
LeftArm 77.403080 27.350518 -44.095865
LeftForeArm -67.944674 -0.000000 72.395862
LeftHand 8.420643 -0.000000 1.508183
LeftHandThumb1 -26.253704 0.000000 33.147579
RightShoulder 5.629224 3.589207 -24.650612
RightArm 29.069733 -36.072218 65.288683
RightForeArm 54.893600 -0.000000 70.466818
RightHand -3.003951 -0.000000 22.620567
RightHandThumb1 -24.326973 -0.000000 -32.862282
LeftUpLeg 1.631400 -1.020177 11.210392
LeftLeg 23.062833 -0.000000 -0.000000
LeftFoot -14.584280 6.538220 -8.766239
LeftToeBase -9.680614 -0.000000 0.000000
RightUpLeg -109.249731 8.635414 15.356240
RightLeg 93.790609 -0.000000 -0.000000
RightFoot 34.238453 -12.311623 8.158924
RightToeBase 28.865516 -0.000000 -0.000000
446
root 2.419082 32.896727 -8.655152 -17.760326 18.657066 -17.426390
Spine 21.455044 -4.676084 13.523692
Head -5.774185 12.540649 2.608833
LeftShoulder -3.001739 37.765725 19.999427
LeftArm 77.475148 27.327919 -43.977486
LeftForeArm -67.838938 -0.000000 73.042932
LeftHand 8.511198 -0.000000 1.981270
LeftHandThumb1 -26.253704 0.000000 33.147579
RightShoulder 5.434339 3.515465 -24.683813
RightArm 28.785595 -35.859423 65.485803
RightForeArm 54.773982 -0.000000 71.079096
RightHand -3.021120 -0.000000 22.678247
RightHandThumb1 -24.326973 -0.000000 -32.862282
LeftUpLeg 2.017677 -1.029519 11.209042
LeftLeg 23.254940 -0.000000 -0.000000
LeftFoot -14.680937 6.687882 -8.431847
LeftToeBase -9.597932 -0.000000 0.000000
RightUpLeg -109.422188 8.437265 15.444365
RightLeg 93.818694 -0.000000 -0.000000
RightFoot 34.176800 -12.360265 8.103833
RightToeBase 28.919195 -0.000000 -0.000000
447
root 2.436018 32.895520 -8.614084 -18.209709 18.566750 -17.417609
Spine 21.714218 -4.662872 13.526664
Head -5.380231 12.428979 2.673342
LeftShoulder -3.128952 37.818741 19.912088
LeftArm 77.565471 27.325679 -43.874934
LeftForeArm -67.748166 -0.000000 73.711150
LeftHand 8.530824 -0.000000 2.519627
LeftHandThumb1 -26.253704 0.000000 33.147579
RightShoulder 5.247946 3.430672 -24.762211
RightArm 28.526212 -35.676980 65.652970
RightForeArm 54.598449 0.000000 71.693292
RightHand -3.068842 -0.000000 22.751362
RightHandThumb1 -24.326973 -0.000000 -32.862282
LeftUpLeg 2.511673 -1.117143 11.180771
LeftLeg 23.347486 -0.000000 -0.000000
LeftFoot -14.768309 6.861325 -8.283417
LeftToeBase -9.694778 -0.000000 0.000000
RightUpLeg -109.558469 8.288431 15.486629
RightLeg 93.855792 -0.000000 -0.000000
RightFoot 34.157108 -12.470460 8.212380
RightToeBase 28.972614 -0.000000 -0.000000
448
root 2.449340 32.897212 -8.570035 -18.639653 18.413037 -17.460939
Spine 21.910950 -4.595587 13.605492
Head -4.886209 12.304436 2.768361
LeftShoulder -3.244455 37.850388 19.857212
LeftArm 77.650646 27.358261 -43.786474
LeftForeArm -67.688893 -0.000000 74.353160
LeftHand 8.523817 -0.000000 3.198191
LeftHandThumb1 -26.253704 0.000000 33.147579
RightShoulder 5.080979 3.302000 -24.846922
RightArm 28.349110 -35.516116 65.747266
RightForeArm 54.518623 -0.000000 72.259306
RightHand -3.167361 -0.000000 22.799596
RightHandThumb1 -24.326973 -0.000000 -32.862282
LeftUpLeg 3.026669 -1.188656 11.217754
LeftLeg 23.366667 -0.000000 -0.000000
LeftFoot -14.860611 7.059406 -8.105032
LeftToeBase -9.809503 -0.000000 0.000000
RightUpLeg -109.708813 8.212584 15.589747
RightLeg 93.886631 -0.000000 -0.000000
RightFoot 34.127529 -12.587052 8.419021
RightToeBase 28.934910 -0.000000 -0.000000
449
root 2.463235 32.898383 -8.527519 -18.997894 18.260633 -17.508908
Spine 22.011000 -4.521784 13.705137
Head -4.336493 12.177610 2.850113
LeftShoulder -3.359107 37.877509 19.825279
LeftArm 77.735560 27.394276 -43.681595
LeftForeArm -67.486563 -0.000000 74.938713
LeftHand 8.298305 -0.000000 3.407819
LeftHandThumb1 -26.253704 0.000000 33.147579
RightShoulder 4.938329 3.184382 -24.976534
RightArm 28.143993 -35.383823 65.858052
RightForeArm 54.435680 0.000000 72.844985
RightHand -3.162789 -0.000000 22.836229
RightHandThumb1 -24.326973 -0.000000 -32.862282
LeftUpLeg 3.501606 -1.341508 11.239808
LeftLeg 23.338340 -0.000000 -0.000000
LeftFoot -14.942518 7.185982 -8.112245
LeftToeBase -10.176801 -0.000000 0.000000
RightUpLeg -109.946290 8.142446 15.694276
RightLeg 93.919719 -0.000000 -0.000000
RightFoot 34.205787 -12.662262 8.561683
RightToeBase 28.964734 -0.000000 -0.000000
